name C:\Users\lingh\OneDrive - KTH\ExMaterials\7-Doctor\Research\2-workshop\S3 Mesh Based Contact\TrackSimResults\KneeProsthesis\KneeProsthesis.mot
datacolumns 7
datarows 41
range 2.229200 3.374000
endheader
time	knee_flexion	knee_adduction	knee_rotation	knee_tx	knee_ty	knee_tz	
          2.22920000	         -1.40218882	          0.18686771	          0.04890414	         -0.00020843	          0.04213007	         -0.00058692	
          2.24210209	         -3.49353756	          0.18509998	          0.05856191	          0.00011147	          0.04242446	         -0.00051371	
          2.28644000	        -13.68941847	          0.13048864	          0.09006158	          0.00142496	          0.04333888	         -0.00030213	
          2.33077791	        -28.03006575	          0.09730911	          0.11515028	          0.00313202	          0.04502491	         -0.00029512	
          2.34368000	        -32.88459209	          0.10982926	          0.12053406	          0.00371430	          0.04583370	         -0.00035829	
          2.35658209	        -38.12108891	          0.14744843	          0.12721093	          0.00435903	          0.04726579	         -0.00045845	
          2.40092000	        -55.34951451	          0.22185516	          0.12552631	          0.00547196	          0.04883322	         -0.00077030	
          2.44525791	        -66.72850283	          0.21450492	          0.09765519	          0.00534213	          0.04679663	         -0.00093718	
          2.45816000	        -68.06537479	          0.19761944	          0.08687440	          0.00515835	          0.04582605	         -0.00094070	
          2.47106209	        -68.78987120	          0.20980251	          0.08038469	          0.00521093	          0.04608618	         -0.00097156	
          2.51540000	        -65.74569683	          0.22948374	          0.07352397	          0.00524246	          0.04712449	         -0.00096379	
          2.55973791	        -55.52881753	          0.18333660	          0.08356377	          0.00464570	          0.04707150	         -0.00080050	
          2.57264000	        -51.47151066	          0.15163408	          0.08834107	          0.00427940	          0.04660410	         -0.00072769	
          2.58554209	        -46.73936241	          0.12720695	          0.09562119	          0.00399858	          0.04686436	         -0.00067233	
          2.62988000	        -27.89285993	          0.13052859	          0.10863958	          0.00272589	          0.04609499	         -0.00064264	
          2.67421791	        -10.06847630	          0.17311748	          0.10011787	          0.00124770	          0.04356454	         -0.00063908	
          2.68712000	         -6.01774062	          0.17486852	          0.09303792	          0.00082988	          0.04265074	         -0.00060114	
          2.70002209	         -2.37104324	          0.11930435	          0.08632541	          0.00050855	          0.04238798	         -0.00047168	
          2.74436000	          2.46285613	         -0.00297337	          0.07188631	         -0.00006452	          0.04213185	         -0.00021329	
          2.78869791	         -1.40054533	          0.12084241	          0.07507160	         -0.00001868	          0.04233550	         -0.00028387	
          2.80160000	         -3.55204849	          0.22934056	          0.08010867	          0.00007260	          0.04237927	         -0.00037372	
          2.81450209	         -5.71045441	          0.29171692	          0.08372284	          0.00017552	          0.04257778	         -0.00036812	
          2.85884000	        -11.22017116	          0.39706547	          0.08503068	          0.00053255	          0.04294505	          0.00005190	
          2.90317791	        -13.39237710	          0.46178477	          0.07942153	          0.00080146	          0.04300879	          0.00061580	
          2.91608000	        -13.32577581	          0.49707496	          0.07842437	          0.00084563	          0.04300493	          0.00071731	
          2.92898209	        -13.29349124	          0.51098269	          0.07782311	          0.00088186	          0.04300443	          0.00078536	
          2.97332000	        -12.34813482	          0.43900178	          0.07666009	          0.00080981	          0.04294506	          0.00071227	
          3.01765791	         -9.99763458	          0.35482619	          0.07490681	          0.00057803	          0.04282903	          0.00032440	
          3.03056000	         -9.02858747	          0.36060413	          0.07391204	          0.00050778	          0.04279076	          0.00018261	
          3.04346209	         -8.05812299	          0.37704557	          0.07209806	          0.00045670	          0.04269849	          0.00004936	
          3.08780000	         -4.29503130	          0.29108599	          0.05299445	          0.00031483	          0.04244359	         -0.00028390	
          3.13213791	         -0.37693456	          0.10559473	          0.02693091	          0.00017929	          0.04225636	         -0.00041038	
          3.14504000	          0.69686663	          0.05568172	          0.02047697	          0.00013243	          0.04220921	         -0.00040576	
          3.15794209	          1.63158261	          0.03378444	          0.01623493	          0.00008364	          0.04215774	         -0.00040053	
          3.20228000	          3.96863446	          0.01886492	          0.00893663	         -0.00005227	          0.04201799	         -0.00036833	
          3.24661791	          5.09611408	          0.03731326	          0.00882672	         -0.00011837	          0.04193045	         -0.00031276	
          3.25952000	          5.22444857	          0.03766122	          0.00937694	         -0.00012063	          0.04191380	         -0.00029195	
          3.27242209	          5.27848430	          0.03681647	          0.01044316	         -0.00012316	          0.04190812	         -0.00026745	
          3.31676000	          4.67805278	          0.03520826	          0.01239418	         -0.00007208	          0.04194181	         -0.00024695	
          3.36109791	          1.16174337	          0.05298352	          0.01214949	          0.00006444	          0.04217224	         -0.00028714	
          3.37400000	         -0.72813948	          0.06506110	          0.01175190	          0.00011888	          0.04229773	         -0.00030311	
